<svg xmlns="http://www.w3.org/2000/svg" viewBox="0 0 1200 700">
  <defs>
    <linearGradient id="bg2" x1="0" y1="0" x2="1" y2="1">
      <stop offset="0%" stop-color="#111827" />
      <stop offset="100%" stop-color="#0f172a" />
    </linearGradient>
  </defs>
  <rect width="1200" height="700" fill="url(#bg2)" rx="36" />
  <rect x="96" y="96" width="1008" height="504" rx="36" fill="#111827" opacity="0.9" />
  <path d="M180 180h280v180H180z" fill="#0f172a" stroke="#475569" stroke-width="4" rx="20" />
  <path d="M520 180h280v180H520z" fill="#0f172a" stroke="#475569" stroke-width="4" rx="20" />
  <path d="M860 180h160v180H860z" fill="#0f172a" stroke="#475569" stroke-width="4" rx="20" />
  <rect x="180" y="420" width="720" height="120" rx="20" fill="#0f172a" stroke="#475569" stroke-width="4" />
  <circle cx="260" cy="235" r="18" fill="#38bdf8" />
  <rect x="300" y="220" width="180" height="24" rx="12" fill="#334155" />
  <rect x="300" y="260" width="120" height="18" rx="9" fill="#334155" />
  <circle cx="580" cy="235" r="18" fill="#f97316" />
  <rect x="620" y="220" width="180" height="24" rx="12" fill="#334155" />
  <rect x="620" y="260" width="120" height="18" rx="9" fill="#334155" />
  <circle cx="980" cy="235" r="18" fill="#22c55e" />
  <rect x="860" y="220" width="100" height="24" rx="12" fill="#334155" />
  <rect x="860" y="260" width="70" height="18" rx="9" fill="#334155" />
  <text x="160" y="125" fill="#f8fafc" font-family="Inter, sans-serif" font-size="48" font-weight="700">Verified Chat + Live Feed</text>
  <text x="160" y="175" fill="#cbd5e1" font-family="Inter, sans-serif" font-size="24">Show live chat overlays and verified streamer conversations.</text>
</svg>